<svg width="428" height="298" viewBox="0 0 428 298" fill="none" xmlns="http://www.w3.org/2000/svg">
<path d="M340.455 56.3709C377.329 81.7176 410.406 107.443 422.336 138.086C434.808 168.729 426.132 204.29 401.73 234.176C377.871 264.063 338.286 287.896 294.363 295.463C250.441 302.65 202.722 293.571 159.341 280.708C115.419 267.846 75.834 250.822 46.5521 225.097C16.728 199.372 -3.33553 164.946 0.460266 130.898C4.79832 96.4717 32.9957 62.8022 73.6649 37.4554C114.334 12.487 166.933 -3.78034 214.109 0.759379C261.286 5.29909 303.04 30.6458 340.455 56.3709Z" fill="url(#paint0_linear_8_55)"/>
<defs>
<linearGradient id="paint0_linear_8_55" x1="0" y1="298" x2="279.484" y2="-103.406" gradientUnits="userSpaceOnUse">
<stop stop-color="#2B7FFF"/>
<stop offset="1" stop-color="#1A3DBA"/>
</linearGradient>
</defs>
</svg>
